<svg xmlns="http://www.w3.org/2000/svg" width="365.596" height="22.372" viewBox="0 0 365.596 22.372">
  <path id="Lenovo_Pro_Business_Store" data-name="Lenovo Pro Business Store" d="M-182.084,0h14.364V-3.7h-9.828V-19.6h-4.536Zm30.408-7.476a7.457,7.457,0,0,0-7.84-7.812,7.669,7.669,0,0,0-8.036,7.756c0,4.48,3.388,7.756,8.6,7.756a7.89,7.89,0,0,0,6.216-2.436l-2.324-2.52a5.107,5.107,0,0,1-3.78,1.456c-2.3,0-3.892-1.148-4.312-3.024h11.4C-151.732-6.664-151.676-7.14-151.676-7.476Zm-7.812-4.508a3.58,3.58,0,0,1,3.7,3.136h-7.42A3.566,3.566,0,0,1-159.488-11.984Zm19.04-3.3a6.6,6.6,0,0,0-4.984,1.988v-1.764H-149.6V0h4.368V-7.448c0-2.772,1.512-4.06,3.612-4.06,1.932,0,3.052,1.12,3.052,3.556V0h4.368V-8.624C-134.2-13.216-136.892-15.288-140.448-15.288ZM-123.76.224c4.788,0,8.26-3.22,8.26-7.756s-3.472-7.756-8.26-7.756-8.288,3.22-8.288,7.756S-128.548.224-123.76.224Zm0-3.584a3.822,3.822,0,0,1-3.864-4.172A3.822,3.822,0,0,1-123.76-11.7c2.184,0,3.836,1.568,3.836,4.172S-121.576-3.36-123.76-3.36Zm20.664-11.7-4.312,10.248-4.172-10.248h-4.508L-109.76,0h4.508L-98.9-15.064ZM-91.2.224c4.788,0,8.26-3.22,8.26-7.756s-3.472-7.756-8.26-7.756-8.288,3.22-8.288,7.756S-95.984.224-91.2.224Zm0-3.584A3.822,3.822,0,0,1-95.06-7.532,3.822,3.822,0,0,1-91.2-11.7c2.184,0,3.836,1.568,3.836,4.172S-89.012-3.36-91.2-3.36ZM-64.988-19.6h-8.484V0h4.536V-5.4h3.948c5.236,0,8.512-2.716,8.512-7.084C-56.476-16.884-59.752-19.6-64.988-19.6ZM-65.24-9.1h-3.7v-6.8h3.7c2.772,0,4.172,1.26,4.172,3.416C-61.068-10.36-62.468-9.1-65.24-9.1Zm15.008-3.976v-1.988H-54.4V0h4.368V-7.112c0-2.884,1.6-4.2,4-4.2.336,0,.616.028.98.056v-4.032A6.079,6.079,0,0,0-50.232-13.076ZM-36.26.224C-31.472.224-28-3-28-7.532s-3.472-7.756-8.26-7.756-8.288,3.22-8.288,7.756S-41.048.224-36.26.224Zm0-3.584a3.822,3.822,0,0,1-3.864-4.172A3.822,3.822,0,0,1-36.26-11.7c2.184,0,3.836,1.568,3.836,4.172S-34.076-3.36-36.26-3.36Zm32.116-6.832A4.711,4.711,0,0,0-1.54-14.5c0-3.052-2.52-5.1-7.42-5.1h-9.576V0H-8.4C-3.248,0-.56-1.96-.56-5.348A4.84,4.84,0,0,0-4.144-10.192ZM-9.52-16.184c2.212,0,3.416.756,3.416,2.3s-1.2,2.324-3.416,2.324h-4.508v-4.62Zm.784,12.768h-5.292V-8.26h5.292c2.352,0,3.612.784,3.612,2.436C-5.124-4.144-6.384-3.416-8.736-3.416Zm21.28-11.648v7.448c0,2.772-1.456,4.06-3.472,4.06C7.14-3.556,6.02-4.676,6.02-7.2v-7.868H1.652v8.512C1.652-1.9,4.312.224,8.092.224a6.1,6.1,0,0,0,4.676-2.016V0h4.144V-15.064ZM25.2.224c4.508,0,7.112-1.988,7.112-4.788,0-5.936-9.1-3.444-9.1-6.02,0-.784.84-1.4,2.8-1.4a8.651,8.651,0,0,1,4.34,1.12l1.456-3.108a12.387,12.387,0,0,0-5.8-1.316c-4.4,0-6.972,2.016-6.972,4.872,0,6.02,9.1,3.5,9.1,5.964,0,.84-.756,1.372-2.772,1.372a10.306,10.306,0,0,1-5.236-1.456L18.676-1.4A12.932,12.932,0,0,0,25.2.224ZM36.344-17.164a2.512,2.512,0,0,0,2.716-2.52,2.452,2.452,0,0,0-2.716-2.352A2.5,2.5,0,0,0,33.628-19.6,2.5,2.5,0,0,0,36.344-17.164ZM34.16,0h4.368V-15.064H34.16ZM50.9-15.288A6.6,6.6,0,0,0,45.92-13.3v-1.764H41.748V0h4.368V-7.448c0-2.772,1.512-4.06,3.612-4.06,1.932,0,3.052,1.12,3.052,3.556V0h4.368V-8.624C57.148-13.216,54.46-15.288,50.9-15.288ZM75.18-7.476a7.457,7.457,0,0,0-7.84-7.812A7.669,7.669,0,0,0,59.3-7.532c0,4.48,3.388,7.756,8.6,7.756a7.89,7.89,0,0,0,6.216-2.436l-2.324-2.52a5.107,5.107,0,0,1-3.78,1.456c-2.3,0-3.892-1.148-4.312-3.024H75.1C75.124-6.664,75.18-7.14,75.18-7.476Zm-7.812-4.508a3.58,3.58,0,0,1,3.7,3.136h-7.42A3.566,3.566,0,0,1,67.368-11.984ZM82.32.224c4.508,0,7.112-1.988,7.112-4.788,0-5.936-9.1-3.444-9.1-6.02,0-.784.84-1.4,2.8-1.4a8.651,8.651,0,0,1,4.34,1.12l1.456-3.108a12.387,12.387,0,0,0-5.8-1.316c-4.4,0-6.972,2.016-6.972,4.872,0,6.02,9.1,3.5,9.1,5.964,0,.84-.756,1.372-2.772,1.372a10.306,10.306,0,0,1-5.236-1.456L75.8-1.4A12.932,12.932,0,0,0,82.32.224Zm14.028,0c4.508,0,7.112-1.988,7.112-4.788,0-5.936-9.1-3.444-9.1-6.02,0-.784.84-1.4,2.8-1.4a8.651,8.651,0,0,1,4.34,1.12l1.456-3.108a12.387,12.387,0,0,0-5.8-1.316c-4.4,0-6.972,2.016-6.972,4.872,0,6.02,9.1,3.5,9.1,5.964,0,.84-.756,1.372-2.772,1.372A10.306,10.306,0,0,1,91.28-4.536L89.824-1.4A12.932,12.932,0,0,0,96.348.224ZM119.14.336c5.6,0,8.316-2.8,8.316-6.076,0-7.2-11.4-4.7-11.4-8.316,0-1.232,1.036-2.24,3.724-2.24a11.07,11.07,0,0,1,5.432,1.54l1.4-3.444a13.148,13.148,0,0,0-6.8-1.736c-5.572,0-8.26,2.772-8.26,6.1,0,7.28,11.4,4.76,11.4,8.428,0,1.2-1.092,2.1-3.78,2.1A11.529,11.529,0,0,1,112.7-5.348l-1.54,3.416A13.97,13.97,0,0,0,119.14.336Zm18.816-4.144a2.944,2.944,0,0,1-1.764.56,1.757,1.757,0,0,1-1.876-1.988v-6.132h3.752v-3.36h-3.752V-18.4h-4.368v3.668h-2.324v3.36h2.324V-5.18c0,3.584,2.072,5.4,5.628,5.4a6.242,6.242,0,0,0,3.556-.952ZM147.448.224c4.788,0,8.26-3.22,8.26-7.756s-3.472-7.756-8.26-7.756-8.288,3.22-8.288,7.756S142.66.224,147.448.224Zm0-3.584a3.822,3.822,0,0,1-3.864-4.172,3.822,3.822,0,0,1,3.864-4.172c2.184,0,3.836,1.568,3.836,4.172S149.632-3.36,147.448-3.36Zm14.5-9.716v-1.988H157.78V0h4.368V-7.112c0-2.884,1.6-4.2,4-4.2.336,0,.616.028.98.056v-4.032A6.079,6.079,0,0,0,161.952-13.076Zm21.56,5.6a7.457,7.457,0,0,0-7.84-7.812,7.669,7.669,0,0,0-8.036,7.756c0,4.48,3.388,7.756,8.6,7.756a7.89,7.89,0,0,0,6.216-2.436l-2.324-2.52a5.107,5.107,0,0,1-3.78,1.456c-2.3,0-3.892-1.148-4.312-3.024h11.4C183.456-6.664,183.512-7.14,183.512-7.476ZM175.7-11.984a3.58,3.58,0,0,1,3.7,3.136h-7.42A3.566,3.566,0,0,1,175.7-11.984Z" transform="translate(182.084 22.036)"/>
</svg>
