<svg xmlns="http://www.w3.org/2000/svg" width="183.904" height="46.001" viewBox="0 0 183.904 46.001">
  <g id="logitech-logo" transform="translate(0 0)">
    <path id="Shape-5" d="M97.521-197.606a5.376,5.376,0,0,1-3.891-1.609,5.376,5.376,0,0,1-1.538-3.919A5.352,5.352,0,0,1,93.659-207a5.352,5.352,0,0,1,3.862-1.567A5.352,5.352,0,0,1,101.383-207a5.352,5.352,0,0,1,1.567,3.862,5.5,5.5,0,0,1-5.429,5.528Zm9.871-11.155v-3.751h-6.614a7.613,7.613,0,0,0-3.258-.592,9.948,9.948,0,0,0-7.22,2.877,9.948,9.948,0,0,0-2.947,7.192,9.843,9.843,0,0,0,2.917,7.124,9.843,9.843,0,0,0,7.152,2.846,9.9,9.9,0,0,0,7.135-2.864,9.9,9.9,0,0,0,2.934-7.106,8.8,8.8,0,0,0-1.579-5.133ZM75.508-197.606a5.376,5.376,0,0,1-3.891-1.609,5.376,5.376,0,0,1-1.538-3.919A5.352,5.352,0,0,1,71.646-207a5.352,5.352,0,0,1,3.862-1.567A5.352,5.352,0,0,1,79.37-207a5.352,5.352,0,0,1,1.567,3.862,5.375,5.375,0,0,1-1.538,3.92A5.375,5.375,0,0,1,75.508-197.606Zm0-15.5a9.843,9.843,0,0,0-7.152,2.846,9.843,9.843,0,0,0-2.917,7.124,9.986,9.986,0,0,0,2.924,7.145,9.986,9.986,0,0,0,7.145,2.924,9.9,9.9,0,0,0,7.135-2.864,9.9,9.9,0,0,0,2.934-7.106,9.925,9.925,0,0,0-2.908-7.159,9.925,9.925,0,0,0-7.161-2.9ZM58.826-193.559h4.64v-26.85h-4.64Zm50.64,0h4.64v-18.953h-4.64Zm-11.944,6.614a5.352,5.352,0,0,1-3.862-1.567,5.352,5.352,0,0,1-1.567-3.862H87.354a9.843,9.843,0,0,0,2.917,7.124,9.843,9.843,0,0,0,7.152,2.846,9.987,9.987,0,0,0,7.173-2.854,9.987,9.987,0,0,0,2.995-7.116h-4.64a5.412,5.412,0,0,1-1.585,3.844,5.412,5.412,0,0,1-3.844,1.585Zm34.056-18.065a4.867,4.867,0,0,1,4.936-3.85,4.623,4.623,0,0,1,4.837,3.85Zm5.133-8.1a9.784,9.784,0,0,0-7.143,2.9,9.784,9.784,0,0,0-2.827,7.171c0,5.725,3.85,9.773,9.97,9.773a12.1,12.1,0,0,0,8.588-3.554l-3.258-3.258a7.273,7.273,0,0,1-5.232,2.468,5.054,5.054,0,0,1-5.133-3.85h14.708v-1.086c0-6.218-4.047-10.557-9.673-10.557Zm41.657,0a7.3,7.3,0,0,0-5.725,2.369v-9.773H168v26.85h4.64v-10.266a4.2,4.2,0,0,1,1.215-3.326,4.2,4.2,0,0,1,3.326-1.215c2.665,0,4.146,1.678,4.146,4.541v10.266h4.64v-11.056c.2-5.232-3.159-8.391-7.6-8.391Zm-20.434,4.64A6.325,6.325,0,0,1,162.771-206l3.258-3.258a9.946,9.946,0,0,0-8.1-3.751,9.843,9.843,0,0,0-7.152,2.846,9.843,9.843,0,0,0-2.917,7.124,9.9,9.9,0,0,0,2.934,7.106,9.9,9.9,0,0,0,7.135,2.864,10.869,10.869,0,0,0,8.1-3.751l-3.258-3.258a6.832,6.832,0,0,1-4.837,2.468,5.191,5.191,0,0,1-3.784-1.589,5.191,5.191,0,0,1-1.448-3.84,5.133,5.133,0,0,1,1.43-3.857,5.133,5.133,0,0,1,3.8-1.569Zm-34.352-9.871h-4.64v5.824h-2.468v4.146h2.468v14.708h4.64v-14.708h2.665v-4.146h-2.665ZM111.934-221a3.123,3.123,0,0,0-2.216.984,3.123,3.123,0,0,0-.844,2.274,3.076,3.076,0,0,0,3.06,3.06,3.123,3.123,0,0,0,2.274-.844,3.123,3.123,0,0,0,.984-2.216A3.421,3.421,0,0,0,111.934-221Z" transform="translate(-58.826 224.818)" fill="#fff"/>
    <path id="Shape-path-7" d="M483.2-232.319v9.575a13.314,13.314,0,0,0-9.526,3.9,13.314,13.314,0,0,0-3.9,9.526A13.439,13.439,0,0,0,483.2-195.893v9.575a23.044,23.044,0,0,1-23.1-23,23.044,23.044,0,0,1,23.1-23Z" transform="translate(-324.781 232.319)" fill="#00b8fd" fill-rule="evenodd"/>
    <path id="polygon10-45" d="M505.093,57.082H484.461V66.46h11.155V77.614h9.476Z" transform="translate(-321.189 -42.9)" fill="#00b8fd" fill-rule="evenodd"/>
  </g>
</svg>
